PathFileType	4	(X/Y/Z)	Walk7.trc
DataRate	CameraRate	NumFrames	NumMarkers	Units	OrigDataRate	OrigDataStartFrame	OrigNumFrames
200.000000	200.000000	6	61	mm	200.000000	232	437
Frame#	Times		LFHD		RFHD		CLAV		STRN		LASI		RASI		RACR1		RUA1		RFA1		RWRU		RCAR		LACR1		LUA1		LFA1		LWRU		LCAR		RTH3		RTB4		LTH1		LTH3		LTH2		LTH4		LLFC		LTB1		LTB3		LTB2		LTB4		RTB1		RTB3		RMT5		RMFC		LBHD		RWRR		RTH2		RToe		RMT1		LElbow		RLFC		LWRR		RTB2		RMMAL		RTH4		RElbow		LMFC		LToe		LPSI		T10		RBack		RLMAL		RBHD		RTH1		RCAL		RPSI		C7		LElbowM		LMMAL		RElbowM		LLMAL		LCAL		LMT5		LMT1
			X1	Y1	Z1	X2	Y2	Z2	X3	Y3	Z3	X4	Y4	Z4	X5	Y5	Z5	X6	Y6	Z6	X7	Y7	Z7	X8	Y8	Z8	X9	Y9	Z9	X10	Y10	Z10	X11	Y11	Z11	X12	Y12	Z12	X13	Y13	Z13	X14	Y14	Z14	X15	Y15	Z15	X16	Y16	Z16	X17	Y17	Z17	X18	Y18	Z18	X19	Y19	Z19	X20	Y20	Z20	X21	Y21	Z21	X22	Y22	Z22	X23	Y23	Z23	X24	Y24	Z24	X25	Y25	Z25	X26	Y26	Z26	X27	Y27	Z27	X28	Y28	Z28	X29	Y29	Z29	X30	Y30	Z30	X31	Y31	Z31	X32	Y32	Z32	X33	Y33	Z33	X34	Y34	Z34	X35	Y35	Z35	X36	Y36	Z36	X37	Y37	Z37	X38	Y38	Z38	X39	Y39	Z39	X40	Y40	Z40	X41	Y41	Z41	X42	Y42	Z42	X43	Y43	Z43	X44	Y44	Z44	X45	Y45	Z45	X46	Y46	Z46	X47	Y47	Z47	X48	Y48	Z48	X49	Y49	Z49	X50	Y50	Z50	X51	Y51	Z51	X52	Y52	Z52	X53	Y53	Z53	X54	Y54	Z54	X55	Y55	Z55	X56	Y56	Z56	X57	Y57	Z57	X58	Y58	Z58	X59	Y59	Z59	X60	Y60	Z60	X61	Y61	Z61

232	1.16	18.428	1585.4	-73.593	11.968	1587.9	25.885	-37.033	1312.2	-23.584	-19.614	1177.1	-16.16	-67.072	903.57	-117.81	-62.238	922.89	130.68	-110.9	1350.1	141.17	-133.91	1183.4	200.47	-103.97	899.73	274.56	-31.956	795.84	256.54	-44.903	725.25	300.87	-102.14	1364.3	-176.84	-99.947	1195.4	-249.66	5.3444	938.71	-305.17	110.26	879.96	-273.74	137.63	817.49	-311.48	-3.9213	609.48	183.77	76.748	283.28	127.85	-147.1	742.24	-177.39	-192.49	580.24	-141.81	-116.99	652.25	-137.2	-171.13	660.57	-161.07	-236.5	443.92	-117.74	-219.82	342.69	-48.223	-267.72	179.95	-29.397	-260.52	258.56	-99.156	-246.63	261.08	-39.542	82.641	369.27	134.99	70.707	198.8	117.74	119.04	49.032	145.85	48.72	468.52	36.666	-125.73	1527.6	-103.57	-94.636	778.71	279.17	6.7522	714.43	186.16	202.05	75.79	112.61	159.97	70.388	72.627	-95.551	1042.3	-290.78	53.242	475.75	161.73	60.256	835.58	-290.96	27.761	284.08	164.48	38.838	109.56	48.862	-40.843	683.8	200.97	-155.17	1019.5	240.8	-264.81	445.33	13.253	-150.53	25.967	-21.921	-239.06	967.31	-40.579	-225.25	1209.5	-18.392	-226.79	1296	44.598	15.019	87.859	126.97	-132.07	1537	39.247	-80.185	759.58	219.72	-27.112	58.669	74.979	-235.29	962.65	59.352	-143.78	1418.4	-27.523	-115	1013.4	-224.39	-324.89	97.968	12.793	-175.82	1009.6	164.68	-341.81	77.686	-65.405	-399.33	55.967	-22.885	-240.11	23.941	-75.528	-207.57	31.08	5.6955
233	1.165	25.848	1584.4	-73.498	19.254	1586.9	25.965	-29.315	1311	-23.595	-12.104	1175.7	-16.238	-60.463	902.62	-118.19	-54.145	921.52	130.56	-103.06	1349	141.19	-127.14	1182.6	200.62	-98.758	898.75	275.18	-27.413	794.39	257.51	-40.951	723.85	301.77	-94.28	1363.4	-176.74	-91.209	1194.7	-249.86	16.486	939.35	-305.29	122	882.05	-273.35	150.52	820	-310.92	3.0854	607.79	183.55	91.257	283.56	127.77	-141.95	741.92	-177.65	-188.4	580.24	-142.05	-112.36	651.62	-137.85	-166.51	660.38	-161.38	-233.42	444.16	-117.88	-217.29	342.64	-48.476	-266.45	180.28	-29.67	-258.84	258.86	-99.374	-244.82	261.26	-39.784	93.971	369.73	134.72	88.37	198.88	117.85	142.34	50.555	145.87	55.356	467.04	36.323	-118.1	1526.3	-103.68	-90.243	777.65	279.94	14.064	712.69	186.36	224.26	80.072	112.09	182.2	73.361	72.45	-85.742	1041.6	-291.41	61.061	474.72	161.38	72.74	836.95	-290.87	42.438	282.57	164.6	59.651	108.39	49.232	-33.538	682.17	201.05	-149.12	1018.7	241.06	-261.02	445.68	13.278	-150.43	25.857	-21.988	-231.99	966.22	-39.504	-217.88	1208.7	-18.18	-219.09	1295.1	44.664	36.826	85.85	127.44	-124.66	1535.7	39.115	-72.825	757.92	220.14	-4.4188	55.22	75.531	-227.64	961.44	60.317	-135.91	1417.3	-27.521	-105.39	1012.4	-225.21	-324.26	98.754	12.699	-169.53	1008.8	164.91	-341.46	78.547	-65.449	-399.07	57.233	-22.841	-240.14	23.97	-75.479	-207.49	31.077	5.6083
234	1.17	33.293	1583.5	-73.4	26.561	1585.9	26.05	-21.572	1309.8	-23.596	-4.5679	1174.3	-16.296	-53.824	901.69	-118.57	-45.99	920.16	130.44	-95.174	1347.9	141.22	-120.3	1181.8	200.78	-93.454	897.79	275.8	-22.787	792.97	258.41	-36.874	722.48	302.61	-86.407	1362.4	-176.62	-82.477	1193.9	-250.02	27.488	939.92	-305.39	133.55	884.02	-272.96	163.16	822.38	-310.37	9.9241	605.95	183.41	105.51	283.93	127.69	-136.73	741.61	-177.9	-184.2	580.24	-142.26	-107.64	651.03	-138.5	-161.8	660.2	-161.67	-230.18	444.4	-118.01	-214.63	342.58	-48.727	-265.11	180.62	-29.965	-257.06	259.18	-99.592	-242.9	261.43	-40.03	105.1	370.18	134.46	105.71	199.14	117.95	165.19	52.393	145.82	61.812	465.35	35.948	-110.44	1524.9	-103.8	-85.747	776.61	280.7	21.32	710.78	186.54	245.95	84.609	111.46	203.91	76.611	72.194	-75.978	1041	-291.99	68.742	473.58	161.03	85.016	838.24	-290.75	56.892	281.2	164.7	80.103	107.53	49.568	-26.332	680.43	201.15	-142.99	1018	241.33	-257.07	446.01	13.318	-150.32	25.74	-22.043	-224.88	965.1	-38.388	-210.48	1207.8	-17.927	-211.35	1294.2	44.768	58.296	84.209	127.87	-117.23	1534.3	38.982	-65.461	756.21	220.54	17.95	52.179	76.052	-219.94	960.22	61.316	-128.01	1416.2	-27.507	-95.827	1011.3	-225.96	-323.59	99.576	12.59	-163.2	1008.1	165.16	-341.07	79.458	-65.515	-398.78	58.572	-22.82	-240.16	24.002	-75.434	-207.4	31.074	5.5225
235	1.175	40.763	1582.6	-73.297	33.887	1584.9	26.138	-13.806	1308.5	-23.586	2.9966	1173	-16.332	-47.147	900.77	-118.94	-37.775	918.82	130.31	-87.234	1346.8	141.26	-113.37	1180.9	200.97	-88.055	896.84	276.4	-18.068	791.57	259.27	-32.668	721.14	303.4	-78.524	1361.3	-176.49	-73.754	1193.1	-250.16	38.348	940.43	-305.46	144.93	885.86	-272.58	175.54	824.63	-309.84	16.611	603.97	183.35	119.47	284.38	127.6	-131.44	741.31	-178.12	-179.87	580.25	-142.46	-102.82	650.45	-139.13	-156.99	660.03	-161.94	-226.79	444.64	-118.11	-211.85	342.51	-48.976	-263.7	180.97	-30.281	-255.19	259.52	-99.812	-240.88	261.61	-40.283	116.02	370.62	134.2	122.69	199.58	118.03	187.51	54.507	145.68	68.123	463.47	35.542	-102.75	1523.6	-103.91	-81.144	775.6	281.44	28.532	708.72	186.67	267.05	89.352	110.74	225.04	80.093	71.861	-66.264	1040.4	-292.52	76.309	472.35	160.69	97.078	839.45	-290.61	71.087	279.97	164.77	100.12	106.98	49.859	-19.212	678.6	201.29	-136.79	1017.3	241.63	-252.96	446.33	13.372	-150.2	25.616	-22.083	-217.72	963.96	-37.236	-203.06	1206.9	-17.635	-203.57	1293.3	44.91	79.347	82.919	128.26	-109.78	1532.9	38.848	-58.079	754.47	220.93	39.904	49.533	76.528	-212.18	959	62.348	-120.09	1415.1	-27.48	-86.302	1010.3	-226.65	-322.87	100.44	12.463	-156.83	1007.4	165.44	-340.64	80.422	-65.603	-398.46	59.989	-22.823	-240.17	24.035	-75.391	-207.31	31.071	5.4399
236	1.18	48.256	1581.6	-73.192	41.236	1583.9	26.229	-6.0158	1307.3	-23.561	10.591	1171.6	-16.349	-40.422	899.88	-119.31	-29.5	917.49	130.18	-79.246	1345.8	141.33	-106.36	1180.1	201.18	-82.558	895.91	276.99	-13.251	790.19	260.06	-28.328	719.82	304.13	-70.634	1360.3	-176.33	-65.039	1192.2	-250.26	49.061	940.86	-305.51	156.11	887.57	-272.21	187.66	826.74	-309.34	23.169	601.88	183.4	133.11	284.88	127.5	-126.06	741.02	-178.31	-175.42	580.26	-142.62	-97.891	649.9	-139.74	-152.06	659.87	-162.18	-223.24	444.88	-118.2	-208.93	342.43	-49.226	-262.21	181.33	-30.619	-253.22	259.89	-100.03	-238.74	261.8	-40.542	126.73	371.02	133.94	139.24	200.15	118.1	209.22	56.85	145.48	74.325	461.41	35.107	-95.035	1522.2	-104.02	-76.428	774.61	282.17	35.712	706.53	186.75	287.49	94.239	109.92	245.53	83.754	71.456	-56.61	1039.7	-292.99	83.785	471.03	160.34	108.92	840.56	-290.44	84.988	278.87	164.8	119.64	106.69	50.096	-12.16	676.7	201.47	-130.51	1016.7	241.95	-248.69	446.62	13.439	-150.08	25.485	-22.106	-210.49	962.82	-36.051	-195.59	1206	-17.304	-195.77	1292.3	45.092	99.895	81.955	128.57	-102.31	1531.5	38.716	-50.661	752.71	221.28	61.35	47.264	76.944	-204.35	957.76	63.406	-112.15	1414	-27.437	-76.824	1009.3	-227.26	-322.11	101.34	12.317	-150.42	1006.7	165.74	-340.17	81.442	-65.719	-398.11	61.486	-22.852	-240.17	24.069	-75.351	-207.21	31.069	5.3623
237	1.185	55.773	1580.6	-73.085	48.607	1582.9	26.322	1.7981	1306.1	-23.521	18.218	1170.3	-16.345	-33.639	899.01	-119.67	-21.166	916.2	130.04	-71.211	1344.7	141.42	-99.246	1179.3	201.41	-76.96	894.99	277.57	-8.3287	788.85	260.81	-23.851	718.53	304.82	-62.737	1359.3	-176.15	-56.333	1191.4	-250.32	59.623	941.23	-305.53	167.12	889.15	-271.86	199.53	828.71	-308.86	29.626	599.69	183.57	146.4	285.42	127.38	-120.57	740.74	-178.46	-170.83	580.28	-142.76	-92.836	649.36	-140.31	-147	659.71	-162.39	-219.53	445.12	-118.28	-205.89	342.33	-49.474	-260.64	181.69	-30.978	-251.16	260.28	-100.25	-236.5	261.99	-40.808	137.23	371.39	133.68	155.32	200.84	118.13	230.23	59.365	145.19	80.459	459.21	34.643	-87.298	1520.8	-104.13	-71.593	773.65	282.89	42.876	704.23	186.79	307.22	99.201	109.02	265.31	87.529	70.984	-47.021	1039	-293.4	91.197	469.64	159.98	120.54	841.58	-290.25	98.557	277.89	164.79	138.58	106.65	50.268	-5.1551	674.74	201.69	-124.16	1016	242.29	-244.25	446.89	13.519	-149.95	25.35	-22.114	-203.2	961.66	-34.84	-188.09	1205.1	-16.936	-187.93	1291.4	45.315	119.86	81.285	128.81	-94.806	1530.1	38.587	-43.192	750.95	221.6	82.196	45.344	77.282	-196.45	956.53	64.488	-104.19	1412.9	-27.378	-67.399	1008.3	-227.81	-321.3	102.29	12.151	-143.97	1006.1	166.07	-339.66	82.523	-65.863	-397.71	63.069	-22.911	-240.16	24.103	-75.316	-207.11	31.066	5.2922
